# xmcd
#
# Track frame offsets:
#	150
#	9464
#	22308
#	32602
#	41558
#	52018
#	61899
#	73353
#	82950
#	92494
#	114805
#	128582
#	141786
#	152520
#	161814
#	170299
#	181248
#	192757
#	201260
#	210314
#	220294
#	228644
#	236874
#	247533
#	257533
#	271030
#
# Disc length: 3781 seconds
# Revision: 1
# Processed by: cddbd v1.5.2PL0 Copyright (c) Steve Scherf et al.
# Submitted via: dBpowerAMP V12.0
#
DISCID=5c0ec31a
DTITLE=Ike and Tina Turner - The Kent Years
DYEAR=1964
DGENRE=Soul
TTITLE0=I Can't Believe What You Say
TTITLE1=My Baby Now
TTITLE2=What Do You Think
TTITLE3=Baby Don't Do It
TTITLE4=I Don't Need
TTITLE5=Goodbye, So Long
TTITLE6=Hurt Is All You Gave Me
TTITLE7=Gonna Have Fun
TTITLE8=You Can't Miss Nothing
TTITLE9=All I Could Do Was Cry (a.k.a. Stop The Wedding)
TTITLE10=I Need A Man
TTITLE11=You Can't Have Your Cake And Eat It Too
TTITLE12=Lose My Cool
TTITLE13=He's The One
TTITLE14=Chicken Shack
TTITLE15=Five Long Years
TTITLE16=Flee, Flee, Fla
TTITLE17=I Wish My Dreams Would Come True
TTITLE18=Over You
TTITLE19=Makin' Plans Together
TTITLE20=Shake It Baby
TTITLE21=Don't You Blame It On Me
TTITLE22=Hard Times
TTITLE23=Give Me Your Love
TTITLE24=It's Crazy Baby
TTITLE25=Something Came Over Me
EXTD=
EXTT0=
EXTT1=
EXTT2=
EXTT3=
EXTT4=
EXTT5=
EXTT6=
EXTT7=
EXTT8=
EXTT9=
EXTT10=
EXTT11=
EXTT12=
EXTT13=
EXTT14=
EXTT15=
EXTT16=
EXTT17=
EXTT18=
EXTT19=
EXTT20=
EXTT21=
EXTT22=
EXTT23=
EXTT24=
EXTT25=
PLAYORDER=
